inDegrees=no
num_controls=7
num_derivatives=13
num_iterations=72
num_multipliers=7
num_parameters=0
num_slacks=7
num_states=26
objective=0.334478
objective_accelerations=0.038569
objective_balance=0.001479
objective_effort=0.028007
objective_height=0.264996
objective_ligament=0.001427
solver_duration=764.268770
status=Solve_Succeeded
success=true
DataType=double
version=3
OpenSimVersion=4.5
endheader
time	/jointset/ground_pelvis/pelvis_tilt/value	/jointset/ground_pelvis/pelvis_tx/value	/jointset/ground_pelvis/pelvis_ty/value	/jointset/hip_r/hip_flexion_r/value	/jointset/hip_r/hip_adduction_r/value	/jointset/hip_r/hip_rotation_r/value	/jointset/back/lumbar_extension/value	/jointset/patellofemoral_r/patellar_flexion_r/value	/jointset/knee_r/knee_flexion_r/value	/jointset/knee_r/knee_adduction_r/value	/jointset/knee_r/knee_rotation_r/value	/jointset/ankle_r/ankle_angle_r/value	/jointset/subtalar_r/subtalar_angle_r/value	/jointset/ground_pelvis/pelvis_tilt/speed	/jointset/ground_pelvis/pelvis_tx/speed	/jointset/ground_pelvis/pelvis_ty/speed	/jointset/hip_r/hip_flexion_r/speed	/jointset/hip_r/hip_adduction_r/speed	/jointset/hip_r/hip_rotation_r/speed	/jointset/back/lumbar_extension/speed	/jointset/patellofemoral_r/patellar_flexion_r/speed	/jointset/knee_r/knee_flexion_r/speed	/jointset/knee_r/knee_adduction_r/speed	/jointset/knee_r/knee_rotation_r/speed	/jointset/ankle_r/ankle_angle_r/speed	/jointset/subtalar_r/subtalar_angle_r/speed	/forceset/tau_hip_flexion_r	/forceset/tau_hip_adduction_r	/forceset/tau_hip_rotation_r	/forceset/tau_knee_flexion_r	/forceset/tau_ankle_angle_r	/forceset/tau_subtalar_angle_r	/forceset/tau_lumbar_extension	lambda_cid13_p0	lambda_cid14_p0	lambda_cid14_p1	lambda_cid14_p2	lambda_cid14_p3	lambda_cid14_p4	lambda_cid14_p5	/jointset/ground_pelvis/pelvis_tilt/accel	/jointset/ground_pelvis/pelvis_tx/accel	/jointset/ground_pelvis/pelvis_ty/accel	/jointset/hip_r/hip_flexion_r/accel	/jointset/hip_r/hip_adduction_r/accel	/jointset/hip_r/hip_rotation_r/accel	/jointset/back/lumbar_extension/accel	/jointset/patellofemoral_r/patellar_flexion_r/accel	/jointset/knee_r/knee_flexion_r/accel	/jointset/knee_r/knee_adduction_r/accel	/jointset/knee_r/knee_rotation_r/accel	/jointset/ankle_r/ankle_angle_r/accel	/jointset/subtalar_r/subtalar_angle_r/accel	gamma_cid13_p0	gamma_cid14_p0	gamma_cid14_p1	gamma_cid14_p2	gamma_cid14_p3	gamma_cid14_p4	gamma_cid14_p5
0.5	-0.1774688187657713	0.02587252988798759	0.8007634483386104	0.9403191488174715	-0.2217096776645741	-0.1270339486834164	-0.6448687175365323	0.9649084583696859	0.9649084583696779	-0.05736915754423278	0.1744527574832061	0.2956489022421792	0.1409327229432766	-0.4640237580301349	-0.207700687072896	-0.5256647559091503	2.006880138393799	-0.02720066333116454	0.2014030455786608	-0.7331318039332574	1.966810859679601	1.966810859679607	-0.4248367536805451	-0.000335368439146329	0.527798876295676	0.1682333745166026	-0.2146641423478227	0.01663095074743495	0.01455852220363563	-0.2693787208842086	-0.01517264156218223	0.001317495569700407	0.2478663058681219	-7.980875578701382	-46.92067512401601	-6.433157540865343	0.06530163345083438	-2.965315455834351	-636.9350811071134	57.46344353213038	0.402105591078209	0.589766482940836	-0.4626093072199719	-1.251980694765697	-0.166230147320324	-0.6976236909316318	1.711469464073173	-1.303587359246719	-1.303587359246714	0.2720347400463407	0.03635130552592586	-0.5798483132993577	-0.3145458160177388	-1.693382872285809e-07	-1.795235081077677e-07	5.992274495798301e-07	-1.769968308435584e-06	3.552913811756949e-08	-2.822499011342011e-07	3.883461721515366e-07
0.51	-0.1820878046155382	0.0238252591572728	0.7954848981580832	0.9603219401650127	-0.2219911026621848	-0.1250519113244456	-0.6521139483576603	0.9845088407039069	0.984508840703914	-0.06159911769325371	0.1744513227419015	0.3008967267048823	0.142596959457874	-0.459688644951159	-0.2017312857646057	-0.5299275295718601	1.993393098866538	-0.02909320623394712	0.1951526539369829	-0.7158258115806804	1.953018470494222	1.953018470494234	-0.420975517267468	-6.947782828709652e-06	0.5216879027793822	0.1645493594203651	-0.2219091881496399	0.01734841965674442	0.01470910549393777	-0.2737900871001826	-0.01665852188231532	0.00193229212495885	0.2543883436341082	-7.040796885504757	-47.70520695619029	-6.443552064203987	0.2269119471885802	-2.93487083429861	-642.1995384077237	57.86913951205749	0.4619073768747906	0.6038640072769023	-0.3905071374578942	-1.439848323972456	-0.202343343162359	-0.5668061574351857	1.753446427373246	-1.454100963759777	-1.454100963758941	0.47019872518357	0.02242015027317008	-0.6384654943059566	-0.4051649987315536	-1.481071645545351e-07	-1.360019211942613e-07	7.444662075422186e-07	-1.430746846533533e-06	-2.541766704430274e-09	-2.589164422528088e-07	5.107444316863329e-07
0.52	-0.1866609006923914	0.02183834985014188	0.7901672410925964	0.9801813045688337	-0.2222917684851079	-0.1231279897332134	-0.6591834627939563	1.003963891893165	1.00396389189317	-0.06578505935149563	0.1744514387480819	0.3060810927077199	0.1442223886930477	-0.454845803449511	-0.1956284023561237	-0.5334861329009879	1.978194749648623	-0.03104882839294071	0.189779892029337	-0.6979885269671869	1.937744630685797	1.937744630685815	-0.4160330555245821	-2.521894296950558e-05	0.5151071843226307	0.1604719186319375	-0.2291542339514639	0.01806588856607116	0.01485968878419074	-0.2782014533161607	-0.01814440220244158	0.002547088680249931	0.2609103814000868	-6.162142882526855	-48.48506207152675	-6.445051991147589	0.377880407834267	-2.943726332441501	-647.4139312968217	58.34887819120669	0.5036512756123162	0.6164629029793823	-0.3217752405035736	-1.594242632896547	-0.1788459985625786	-0.52209774412522	1.817727916256315	-1.599877483855907	-1.599877483855903	0.4882798060081987	-0.03298705776574329	-0.6737973013906795	-0.3932309544557062	-1.01499066596742e-07	-1.732350379177315e-08	1.258301522661383e-06	-4.431063746375556e-07	-1.193666580824724e-07	-1.927268593625303e-07	8.936955942364002e-07
0.53	-0.1911831612485277	0.01991301785022749	0.7848175507098932	0.9998804232020561	-0.2226118640749781	-0.1212559872326187	-0.6660720098803048	1.023258604676472	1.023258604676471	-0.06991889542514308	0.1744507887405198	0.3111973872135868	0.1458057964579234	-0.4495275319416372	-0.189426347019795	-0.5363299261375134	1.961357211204764	-0.03298366324659801	0.1848001357771367	-0.6796455709361211	1.920959505991621	1.920959505991633	-0.4105104875978774	-0.0001524322037226438	0.508068528427561	0.1561324238742882	-0.2364134786455797	0.01887293867052347	0.01504544497599688	-0.2825841717602104	-0.02000584715837528	0.002976482792042281	0.267376245381453	-5.345394160302937	-49.41827413751623	-6.559553425221546	0.5532932034402128	-2.721064289191635	-652.7915192502619	58.65162173423478	0.5577393632000014	0.6237882946502582	-0.2474103319737112	-1.769266972539576	-0.2027196631173213	-0.4591064478597675	1.853877351289497	-1.753577556325938	-1.753577556326883	0.6179983537119572	-0.009673362589747195	-0.7314258130898903	-0.46564165229368	-7.567513371308935e-08	5.546189894884145e-08	1.570500874285912e-06	1.696957012584713e-07	-1.935111396149656e-07	-1.416139208040225e-07	1.113684599858289e-06
